<mxfile host="Chrome" modified="2023-07-23T06:13:03.154Z" agent="Mozilla/5.0 (X11; Linux x86_64) AppleWebKit/537.36 (KHTML, like Gecko) Chrome/101.0.0.0 Safari/537.36" etag="dSbWxEPeAcYQLUAtQBx8" version="21.2.7" type="device" pages="2">
  <diagram id="P99Ryf6o9zyu_AFfCsCg" name="entidad-relacion CREDI-CREA">
    <mxGraphModel dx="4155" dy="842" grid="1" gridSize="10" guides="1" tooltips="1" connect="1" arrows="1" fold="1" page="1" pageScale="1" pageWidth="827" pageHeight="1169" math="0" shadow="0">
      <root>
        <mxCell id="0" />
        <mxCell id="1" parent="0" />
        <mxCell id="66ud1QGmvq39mYi4TVKc-70" style="rounded=0;orthogonalLoop=1;jettySize=auto;html=1;endArrow=none;endFill=0;" parent="1" source="66ud1QGmvq39mYi4TVKc-1" target="66ud1QGmvq39mYi4TVKc-68" edge="1">
          <mxGeometry relative="1" as="geometry" />
        </mxCell>
        <mxCell id="66ud1QGmvq39mYi4TVKc-72" value="1,1" style="edgeLabel;html=1;align=center;verticalAlign=middle;resizable=0;points=[];" parent="66ud1QGmvq39mYi4TVKc-70" vertex="1" connectable="0">
          <mxGeometry x="-0.8535" y="3" relative="1" as="geometry">
            <mxPoint as="offset" />
          </mxGeometry>
        </mxCell>
        <mxCell id="66ud1QGmvq39mYi4TVKc-35" style="rounded=0;orthogonalLoop=1;jettySize=auto;html=1;endArrow=none;endFill=0;" parent="1" source="66ud1QGmvq39mYi4TVKc-2" target="66ud1QGmvq39mYi4TVKc-1" edge="1">
          <mxGeometry relative="1" as="geometry" />
        </mxCell>
        <mxCell id="66ud1QGmvq39mYi4TVKc-22" style="rounded=0;orthogonalLoop=1;jettySize=auto;html=1;endArrow=none;endFill=0;" parent="1" source="66ud1QGmvq39mYi4TVKc-3" target="66ud1QGmvq39mYi4TVKc-1" edge="1">
          <mxGeometry relative="1" as="geometry" />
        </mxCell>
        <mxCell id="66ud1QGmvq39mYi4TVKc-19" style="rounded=0;orthogonalLoop=1;jettySize=auto;html=1;endArrow=none;endFill=0;" parent="1" source="66ud1QGmvq39mYi4TVKc-8" target="66ud1QGmvq39mYi4TVKc-1" edge="1">
          <mxGeometry relative="1" as="geometry" />
        </mxCell>
        <mxCell id="66ud1QGmvq39mYi4TVKc-20" style="rounded=0;orthogonalLoop=1;jettySize=auto;html=1;endArrow=none;endFill=0;" parent="1" source="66ud1QGmvq39mYi4TVKc-9" target="66ud1QGmvq39mYi4TVKc-1" edge="1">
          <mxGeometry relative="1" as="geometry" />
        </mxCell>
        <mxCell id="66ud1QGmvq39mYi4TVKc-18" style="rounded=0;orthogonalLoop=1;jettySize=auto;html=1;endArrow=none;endFill=0;" parent="1" source="66ud1QGmvq39mYi4TVKc-11" target="66ud1QGmvq39mYi4TVKc-1" edge="1">
          <mxGeometry relative="1" as="geometry" />
        </mxCell>
        <mxCell id="66ud1QGmvq39mYi4TVKc-69" style="rounded=0;orthogonalLoop=1;jettySize=auto;html=1;endArrow=none;endFill=0;" parent="1" source="66ud1QGmvq39mYi4TVKc-37" target="66ud1QGmvq39mYi4TVKc-68" edge="1">
          <mxGeometry relative="1" as="geometry" />
        </mxCell>
        <mxCell id="66ud1QGmvq39mYi4TVKc-71" value="1,N" style="edgeLabel;html=1;align=center;verticalAlign=middle;resizable=0;points=[];" parent="66ud1QGmvq39mYi4TVKc-69" vertex="1" connectable="0">
          <mxGeometry x="-0.9153" y="-2" relative="1" as="geometry">
            <mxPoint as="offset" />
          </mxGeometry>
        </mxCell>
        <mxCell id="66ud1QGmvq39mYi4TVKc-79" style="rounded=0;orthogonalLoop=1;jettySize=auto;html=1;endArrow=none;endFill=0;" parent="1" source="66ud1QGmvq39mYi4TVKc-37" target="66ud1QGmvq39mYi4TVKc-77" edge="1">
          <mxGeometry relative="1" as="geometry" />
        </mxCell>
        <mxCell id="66ud1QGmvq39mYi4TVKc-83" value="1,N" style="edgeLabel;html=1;align=center;verticalAlign=middle;resizable=0;points=[];" parent="66ud1QGmvq39mYi4TVKc-79" vertex="1" connectable="0">
          <mxGeometry x="-0.7186" y="1" relative="1" as="geometry">
            <mxPoint as="offset" />
          </mxGeometry>
        </mxCell>
        <mxCell id="66ud1QGmvq39mYi4TVKc-38" style="rounded=0;orthogonalLoop=1;jettySize=auto;html=1;endArrow=none;endFill=0;" parent="1" source="66ud1QGmvq39mYi4TVKc-39" target="66ud1QGmvq39mYi4TVKc-37" edge="1">
          <mxGeometry relative="1" as="geometry" />
        </mxCell>
        <mxCell id="66ud1QGmvq39mYi4TVKc-40" style="rounded=0;orthogonalLoop=1;jettySize=auto;html=1;endArrow=none;endFill=0;" parent="1" source="66ud1QGmvq39mYi4TVKc-41" target="66ud1QGmvq39mYi4TVKc-37" edge="1">
          <mxGeometry relative="1" as="geometry" />
        </mxCell>
        <mxCell id="66ud1QGmvq39mYi4TVKc-42" style="rounded=0;orthogonalLoop=1;jettySize=auto;html=1;endArrow=none;endFill=0;" parent="1" source="66ud1QGmvq39mYi4TVKc-43" target="66ud1QGmvq39mYi4TVKc-37" edge="1">
          <mxGeometry relative="1" as="geometry" />
        </mxCell>
        <mxCell id="66ud1QGmvq39mYi4TVKc-44" style="rounded=0;orthogonalLoop=1;jettySize=auto;html=1;endArrow=none;endFill=0;" parent="1" source="66ud1QGmvq39mYi4TVKc-45" target="66ud1QGmvq39mYi4TVKc-37" edge="1">
          <mxGeometry relative="1" as="geometry" />
        </mxCell>
        <mxCell id="66ud1QGmvq39mYi4TVKc-46" style="rounded=0;orthogonalLoop=1;jettySize=auto;html=1;endArrow=none;endFill=0;" parent="1" source="66ud1QGmvq39mYi4TVKc-47" target="66ud1QGmvq39mYi4TVKc-37" edge="1">
          <mxGeometry relative="1" as="geometry" />
        </mxCell>
        <mxCell id="66ud1QGmvq39mYi4TVKc-48" style="rounded=0;orthogonalLoop=1;jettySize=auto;html=1;endArrow=none;endFill=0;" parent="1" source="66ud1QGmvq39mYi4TVKc-49" target="66ud1QGmvq39mYi4TVKc-37" edge="1">
          <mxGeometry relative="1" as="geometry" />
        </mxCell>
        <mxCell id="66ud1QGmvq39mYi4TVKc-50" style="rounded=0;orthogonalLoop=1;jettySize=auto;html=1;endArrow=none;endFill=0;" parent="1" source="66ud1QGmvq39mYi4TVKc-51" target="66ud1QGmvq39mYi4TVKc-37" edge="1">
          <mxGeometry relative="1" as="geometry" />
        </mxCell>
        <mxCell id="66ud1QGmvq39mYi4TVKc-52" style="rounded=0;orthogonalLoop=1;jettySize=auto;html=1;endArrow=none;endFill=0;" parent="1" source="66ud1QGmvq39mYi4TVKc-53" target="66ud1QGmvq39mYi4TVKc-37" edge="1">
          <mxGeometry relative="1" as="geometry" />
        </mxCell>
        <mxCell id="66ud1QGmvq39mYi4TVKc-54" style="rounded=0;orthogonalLoop=1;jettySize=auto;html=1;endArrow=none;endFill=0;" parent="1" source="66ud1QGmvq39mYi4TVKc-55" target="66ud1QGmvq39mYi4TVKc-37" edge="1">
          <mxGeometry relative="1" as="geometry" />
        </mxCell>
        <mxCell id="66ud1QGmvq39mYi4TVKc-56" style="rounded=0;orthogonalLoop=1;jettySize=auto;html=1;endArrow=none;endFill=0;" parent="1" source="66ud1QGmvq39mYi4TVKc-57" target="66ud1QGmvq39mYi4TVKc-37" edge="1">
          <mxGeometry relative="1" as="geometry" />
        </mxCell>
        <mxCell id="66ud1QGmvq39mYi4TVKc-58" style="rounded=0;orthogonalLoop=1;jettySize=auto;html=1;endArrow=none;endFill=0;" parent="1" source="66ud1QGmvq39mYi4TVKc-59" target="66ud1QGmvq39mYi4TVKc-37" edge="1">
          <mxGeometry relative="1" as="geometry" />
        </mxCell>
        <mxCell id="66ud1QGmvq39mYi4TVKc-60" style="rounded=0;orthogonalLoop=1;jettySize=auto;html=1;endArrow=none;endFill=0;" parent="1" source="66ud1QGmvq39mYi4TVKc-61" target="66ud1QGmvq39mYi4TVKc-37" edge="1">
          <mxGeometry relative="1" as="geometry" />
        </mxCell>
        <mxCell id="66ud1QGmvq39mYi4TVKc-62" style="rounded=0;orthogonalLoop=1;jettySize=auto;html=1;endArrow=none;endFill=0;" parent="1" source="66ud1QGmvq39mYi4TVKc-63" target="66ud1QGmvq39mYi4TVKc-37" edge="1">
          <mxGeometry relative="1" as="geometry" />
        </mxCell>
        <mxCell id="66ud1QGmvq39mYi4TVKc-64" style="rounded=0;orthogonalLoop=1;jettySize=auto;html=1;endArrow=none;endFill=0;" parent="1" source="66ud1QGmvq39mYi4TVKc-65" target="66ud1QGmvq39mYi4TVKc-37" edge="1">
          <mxGeometry relative="1" as="geometry" />
        </mxCell>
        <mxCell id="66ud1QGmvq39mYi4TVKc-66" style="rounded=0;orthogonalLoop=1;jettySize=auto;html=1;endArrow=none;endFill=0;" parent="1" source="66ud1QGmvq39mYi4TVKc-67" target="66ud1QGmvq39mYi4TVKc-37" edge="1">
          <mxGeometry relative="1" as="geometry" />
        </mxCell>
        <mxCell id="66ud1QGmvq39mYi4TVKc-81" style="rounded=0;orthogonalLoop=1;jettySize=auto;html=1;endArrow=none;endFill=0;" parent="1" source="66ud1QGmvq39mYi4TVKc-75" target="66ud1QGmvq39mYi4TVKc-78" edge="1">
          <mxGeometry relative="1" as="geometry" />
        </mxCell>
        <mxCell id="66ud1QGmvq39mYi4TVKc-86" value="1,1" style="edgeLabel;html=1;align=center;verticalAlign=middle;resizable=0;points=[];" parent="66ud1QGmvq39mYi4TVKc-81" vertex="1" connectable="0">
          <mxGeometry x="-0.8523" y="-3" relative="1" as="geometry">
            <mxPoint y="-3" as="offset" />
          </mxGeometry>
        </mxCell>
        <mxCell id="66ud1QGmvq39mYi4TVKc-80" style="rounded=0;orthogonalLoop=1;jettySize=auto;html=1;endArrow=none;endFill=0;" parent="1" source="66ud1QGmvq39mYi4TVKc-77" target="66ud1QGmvq39mYi4TVKc-75" edge="1">
          <mxGeometry relative="1" as="geometry" />
        </mxCell>
        <mxCell id="66ud1QGmvq39mYi4TVKc-84" value="1,1" style="edgeLabel;html=1;align=center;verticalAlign=middle;resizable=0;points=[];" parent="66ud1QGmvq39mYi4TVKc-80" vertex="1" connectable="0">
          <mxGeometry x="0.61" y="1" relative="1" as="geometry">
            <mxPoint as="offset" />
          </mxGeometry>
        </mxCell>
        <mxCell id="66ud1QGmvq39mYi4TVKc-82" style="rounded=0;orthogonalLoop=1;jettySize=auto;html=1;endArrow=none;endFill=0;" parent="1" source="66ud1QGmvq39mYi4TVKc-78" target="66ud1QGmvq39mYi4TVKc-76" edge="1">
          <mxGeometry relative="1" as="geometry" />
        </mxCell>
        <mxCell id="66ud1QGmvq39mYi4TVKc-87" value="1,1" style="edgeLabel;html=1;align=center;verticalAlign=middle;resizable=0;points=[];" parent="66ud1QGmvq39mYi4TVKc-82" vertex="1" connectable="0">
          <mxGeometry x="0.736" y="1" relative="1" as="geometry">
            <mxPoint as="offset" />
          </mxGeometry>
        </mxCell>
        <mxCell id="7-qyzKeXmiIdSlEH_Hon-5" style="rounded=0;orthogonalLoop=1;jettySize=auto;html=1;endArrow=none;endFill=0;" parent="1" source="7-qyzKeXmiIdSlEH_Hon-1" target="66ud1QGmvq39mYi4TVKc-75" edge="1">
          <mxGeometry relative="1" as="geometry" />
        </mxCell>
        <mxCell id="7-qyzKeXmiIdSlEH_Hon-4" style="rounded=0;orthogonalLoop=1;jettySize=auto;html=1;endArrow=none;endFill=0;" parent="1" source="7-qyzKeXmiIdSlEH_Hon-2" target="66ud1QGmvq39mYi4TVKc-75" edge="1">
          <mxGeometry relative="1" as="geometry" />
        </mxCell>
        <mxCell id="7-qyzKeXmiIdSlEH_Hon-6" style="rounded=0;orthogonalLoop=1;jettySize=auto;html=1;endArrow=none;endFill=0;" parent="1" source="7-qyzKeXmiIdSlEH_Hon-3" target="66ud1QGmvq39mYi4TVKc-75" edge="1">
          <mxGeometry relative="1" as="geometry" />
        </mxCell>
        <mxCell id="7-qyzKeXmiIdSlEH_Hon-8" style="rounded=0;orthogonalLoop=1;jettySize=auto;html=1;endArrow=none;endFill=0;" parent="1" source="7-qyzKeXmiIdSlEH_Hon-7" target="66ud1QGmvq39mYi4TVKc-75" edge="1">
          <mxGeometry relative="1" as="geometry" />
        </mxCell>
        <mxCell id="7-qyzKeXmiIdSlEH_Hon-10" style="rounded=0;orthogonalLoop=1;jettySize=auto;html=1;endArrow=none;endFill=0;" parent="1" source="7-qyzKeXmiIdSlEH_Hon-9" target="66ud1QGmvq39mYi4TVKc-75" edge="1">
          <mxGeometry relative="1" as="geometry" />
        </mxCell>
        <mxCell id="7-qyzKeXmiIdSlEH_Hon-15" style="rounded=0;orthogonalLoop=1;jettySize=auto;html=1;endArrow=none;endFill=0;" parent="1" source="7-qyzKeXmiIdSlEH_Hon-11" target="66ud1QGmvq39mYi4TVKc-75" edge="1">
          <mxGeometry relative="1" as="geometry" />
        </mxCell>
        <mxCell id="7-qyzKeXmiIdSlEH_Hon-16" style="rounded=0;orthogonalLoop=1;jettySize=auto;html=1;endArrow=none;endFill=0;" parent="1" source="7-qyzKeXmiIdSlEH_Hon-12" target="66ud1QGmvq39mYi4TVKc-75" edge="1">
          <mxGeometry relative="1" as="geometry" />
        </mxCell>
        <mxCell id="7-qyzKeXmiIdSlEH_Hon-17" style="rounded=0;orthogonalLoop=1;jettySize=auto;html=1;endArrow=none;endFill=0;" parent="1" source="7-qyzKeXmiIdSlEH_Hon-14" target="66ud1QGmvq39mYi4TVKc-75" edge="1">
          <mxGeometry relative="1" as="geometry" />
        </mxCell>
        <mxCell id="7-qyzKeXmiIdSlEH_Hon-21" style="rounded=0;orthogonalLoop=1;jettySize=auto;html=1;endArrow=none;endFill=0;" parent="1" source="7-qyzKeXmiIdSlEH_Hon-18" target="66ud1QGmvq39mYi4TVKc-75" edge="1">
          <mxGeometry relative="1" as="geometry" />
        </mxCell>
        <mxCell id="7-qyzKeXmiIdSlEH_Hon-22" style="rounded=0;orthogonalLoop=1;jettySize=auto;html=1;endArrow=none;endFill=0;" parent="1" source="7-qyzKeXmiIdSlEH_Hon-19" target="66ud1QGmvq39mYi4TVKc-75" edge="1">
          <mxGeometry relative="1" as="geometry" />
        </mxCell>
        <mxCell id="7-qyzKeXmiIdSlEH_Hon-23" style="rounded=0;orthogonalLoop=1;jettySize=auto;html=1;endArrow=none;endFill=0;" parent="1" source="7-qyzKeXmiIdSlEH_Hon-20" target="66ud1QGmvq39mYi4TVKc-75" edge="1">
          <mxGeometry relative="1" as="geometry" />
        </mxCell>
        <mxCell id="7-qyzKeXmiIdSlEH_Hon-27" style="rounded=0;orthogonalLoop=1;jettySize=auto;html=1;endArrow=none;endFill=0;" parent="1" source="7-qyzKeXmiIdSlEH_Hon-26" target="66ud1QGmvq39mYi4TVKc-37" edge="1">
          <mxGeometry relative="1" as="geometry" />
        </mxCell>
        <mxCell id="7-qyzKeXmiIdSlEH_Hon-29" style="rounded=0;orthogonalLoop=1;jettySize=auto;html=1;endArrow=none;endFill=0;" parent="1" source="7-qyzKeXmiIdSlEH_Hon-28" target="66ud1QGmvq39mYi4TVKc-75" edge="1">
          <mxGeometry relative="1" as="geometry" />
        </mxCell>
        <mxCell id="7-qyzKeXmiIdSlEH_Hon-34" style="rounded=0;orthogonalLoop=1;jettySize=auto;html=1;endArrow=none;endFill=0;" parent="1" source="7-qyzKeXmiIdSlEH_Hon-30" target="66ud1QGmvq39mYi4TVKc-76" edge="1">
          <mxGeometry relative="1" as="geometry" />
        </mxCell>
        <mxCell id="7-qyzKeXmiIdSlEH_Hon-35" style="rounded=0;orthogonalLoop=1;jettySize=auto;html=1;endArrow=none;endFill=0;" parent="1" source="7-qyzKeXmiIdSlEH_Hon-31" target="66ud1QGmvq39mYi4TVKc-76" edge="1">
          <mxGeometry relative="1" as="geometry" />
        </mxCell>
        <mxCell id="7-qyzKeXmiIdSlEH_Hon-33" style="rounded=0;orthogonalLoop=1;jettySize=auto;html=1;endArrow=none;endFill=0;" parent="1" source="7-qyzKeXmiIdSlEH_Hon-32" target="66ud1QGmvq39mYi4TVKc-76" edge="1">
          <mxGeometry relative="1" as="geometry" />
        </mxCell>
        <mxCell id="7-qyzKeXmiIdSlEH_Hon-37" style="rounded=0;orthogonalLoop=1;jettySize=auto;html=1;endArrow=none;endFill=0;" parent="1" source="7-qyzKeXmiIdSlEH_Hon-36" target="66ud1QGmvq39mYi4TVKc-76" edge="1">
          <mxGeometry relative="1" as="geometry" />
        </mxCell>
        <mxCell id="7-qyzKeXmiIdSlEH_Hon-39" style="rounded=0;orthogonalLoop=1;jettySize=auto;html=1;endArrow=none;endFill=0;" parent="1" source="7-qyzKeXmiIdSlEH_Hon-38" target="66ud1QGmvq39mYi4TVKc-76" edge="1">
          <mxGeometry relative="1" as="geometry" />
        </mxCell>
        <mxCell id="7-qyzKeXmiIdSlEH_Hon-41" style="rounded=0;orthogonalLoop=1;jettySize=auto;html=1;endArrow=none;endFill=0;" parent="1" source="7-qyzKeXmiIdSlEH_Hon-40" target="66ud1QGmvq39mYi4TVKc-76" edge="1">
          <mxGeometry relative="1" as="geometry" />
        </mxCell>
        <mxCell id="7-qyzKeXmiIdSlEH_Hon-43" style="rounded=0;orthogonalLoop=1;jettySize=auto;html=1;endArrow=none;endFill=0;" parent="1" source="7-qyzKeXmiIdSlEH_Hon-42" target="66ud1QGmvq39mYi4TVKc-76" edge="1">
          <mxGeometry relative="1" as="geometry" />
        </mxCell>
        <mxCell id="7-qyzKeXmiIdSlEH_Hon-46" style="rounded=0;orthogonalLoop=1;jettySize=auto;html=1;endArrow=none;endFill=0;" parent="1" source="7-qyzKeXmiIdSlEH_Hon-45" target="66ud1QGmvq39mYi4TVKc-76" edge="1">
          <mxGeometry relative="1" as="geometry" />
        </mxCell>
        <mxCell id="djcoDwFRb1nhkoD3oJi8-3" style="rounded=0;orthogonalLoop=1;jettySize=auto;html=1;endArrow=none;endFill=0;" parent="1" source="djcoDwFRb1nhkoD3oJi8-2" target="66ud1QGmvq39mYi4TVKc-76" edge="1">
          <mxGeometry relative="1" as="geometry" />
        </mxCell>
        <mxCell id="djcoDwFRb1nhkoD3oJi8-7" style="rounded=0;orthogonalLoop=1;jettySize=auto;html=1;endArrow=none;endFill=0;" parent="1" source="djcoDwFRb1nhkoD3oJi8-5" target="66ud1QGmvq39mYi4TVKc-76" edge="1">
          <mxGeometry relative="1" as="geometry" />
        </mxCell>
        <mxCell id="djcoDwFRb1nhkoD3oJi8-8" style="rounded=0;orthogonalLoop=1;jettySize=auto;html=1;endArrow=none;endFill=0;" parent="1" source="djcoDwFRb1nhkoD3oJi8-6" target="66ud1QGmvq39mYi4TVKc-76" edge="1">
          <mxGeometry relative="1" as="geometry" />
        </mxCell>
        <mxCell id="sFIiztONORR1nFewB7nD-4" style="rounded=0;orthogonalLoop=1;jettySize=auto;html=1;endArrow=none;endFill=0;" parent="1" source="sFIiztONORR1nFewB7nD-1" target="66ud1QGmvq39mYi4TVKc-37" edge="1">
          <mxGeometry relative="1" as="geometry" />
        </mxCell>
        <mxCell id="sFIiztONORR1nFewB7nD-5" style="rounded=0;orthogonalLoop=1;jettySize=auto;html=1;endArrow=none;endFill=0;" parent="1" source="sFIiztONORR1nFewB7nD-2" target="66ud1QGmvq39mYi4TVKc-37" edge="1">
          <mxGeometry relative="1" as="geometry" />
        </mxCell>
        <mxCell id="sFIiztONORR1nFewB7nD-7" style="rounded=0;orthogonalLoop=1;jettySize=auto;html=1;endArrow=none;endFill=0;" parent="1" source="sFIiztONORR1nFewB7nD-10" target="66ud1QGmvq39mYi4TVKc-37" edge="1">
          <mxGeometry relative="1" as="geometry">
            <mxPoint x="-205.03664057706874" y="58.436977951162476" as="sourcePoint" />
          </mxGeometry>
        </mxCell>
        <mxCell id="66ud1QGmvq39mYi4TVKc-1" value="Cliente" style="whiteSpace=wrap;html=1;align=center;" parent="1" vertex="1">
          <mxGeometry x="274" y="211" width="100" height="40" as="geometry" />
        </mxCell>
        <mxCell id="66ud1QGmvq39mYi4TVKc-2" value="teléfono" style="ellipse;whiteSpace=wrap;html=1;align=center;" parent="1" vertex="1">
          <mxGeometry x="374" y="41" width="100" height="40" as="geometry" />
        </mxCell>
        <mxCell id="66ud1QGmvq39mYi4TVKc-3" value="tipo" style="ellipse;whiteSpace=wrap;html=1;align=center;" parent="1" vertex="1">
          <mxGeometry x="492" y="41" width="100" height="40" as="geometry" />
        </mxCell>
        <mxCell id="66ud1QGmvq39mYi4TVKc-8" value="nombres" style="ellipse;whiteSpace=wrap;html=1;align=center;" parent="1" vertex="1">
          <mxGeometry x="143" y="41" width="100" height="40" as="geometry" />
        </mxCell>
        <mxCell id="66ud1QGmvq39mYi4TVKc-9" value="apellidos" style="ellipse;whiteSpace=wrap;html=1;align=center;" parent="1" vertex="1">
          <mxGeometry x="261" y="41" width="100" height="40" as="geometry" />
        </mxCell>
        <mxCell id="66ud1QGmvq39mYi4TVKc-11" value="&lt;u&gt;id&lt;/u&gt;" style="ellipse;whiteSpace=wrap;html=1;align=center;" parent="1" vertex="1">
          <mxGeometry x="30" y="41" width="100" height="40" as="geometry" />
        </mxCell>
        <mxCell id="66ud1QGmvq39mYi4TVKc-37" value="Cliente" style="whiteSpace=wrap;html=1;align=center;" parent="1" vertex="1">
          <mxGeometry x="-1188" y="211" width="100" height="40" as="geometry" />
        </mxCell>
        <mxCell id="66ud1QGmvq39mYi4TVKc-39" value="fechaNacimiento" style="ellipse;whiteSpace=wrap;html=1;align=center;" parent="1" vertex="1">
          <mxGeometry x="-1831.75" y="31" width="100" height="40" as="geometry" />
        </mxCell>
        <mxCell id="66ud1QGmvq39mYi4TVKc-41" value="género" style="ellipse;whiteSpace=wrap;html=1;align=center;" parent="1" vertex="1">
          <mxGeometry x="-1713.75" y="31" width="100" height="40" as="geometry" />
        </mxCell>
        <mxCell id="66ud1QGmvq39mYi4TVKc-43" value="estadoCivil" style="ellipse;whiteSpace=wrap;html=1;align=center;fontStyle=0" parent="1" vertex="1">
          <mxGeometry x="-1599.75" y="33" width="102" height="40" as="geometry" />
        </mxCell>
        <mxCell id="66ud1QGmvq39mYi4TVKc-45" value="profesión" style="ellipse;whiteSpace=wrap;html=1;align=center;" parent="1" vertex="1">
          <mxGeometry x="-1481.75" y="33" width="102" height="40" as="geometry" />
        </mxCell>
        <mxCell id="66ud1QGmvq39mYi4TVKc-47" value="actividadEconómica" style="ellipse;whiteSpace=wrap;html=1;align=center;" parent="1" vertex="1">
          <mxGeometry x="-1361.75" y="31" width="109" height="40" as="geometry" />
        </mxCell>
        <mxCell id="66ud1QGmvq39mYi4TVKc-49" value="teléfono" style="ellipse;whiteSpace=wrap;html=1;align=center;" parent="1" vertex="1">
          <mxGeometry x="-1223.75" y="31" width="100" height="40" as="geometry" />
        </mxCell>
        <mxCell id="66ud1QGmvq39mYi4TVKc-51" value="nombres" style="ellipse;whiteSpace=wrap;html=1;align=center;" parent="1" vertex="1">
          <mxGeometry x="-2062.75" y="31" width="100" height="40" as="geometry" />
        </mxCell>
        <mxCell id="66ud1QGmvq39mYi4TVKc-53" value="apellidos" style="ellipse;whiteSpace=wrap;html=1;align=center;" parent="1" vertex="1">
          <mxGeometry x="-1944.75" y="31" width="100" height="40" as="geometry" />
        </mxCell>
        <mxCell id="66ud1QGmvq39mYi4TVKc-55" value="cui" style="ellipse;whiteSpace=wrap;html=1;align=center;fontStyle=4" parent="1" vertex="1">
          <mxGeometry x="-2293.75" y="31" width="100" height="40" as="geometry" />
        </mxCell>
        <mxCell id="66ud1QGmvq39mYi4TVKc-57" value="nit" style="ellipse;whiteSpace=wrap;html=1;align=center;" parent="1" vertex="1">
          <mxGeometry x="-2175.75" y="31" width="100" height="40" as="geometry" />
        </mxCell>
        <mxCell id="66ud1QGmvq39mYi4TVKc-59" value="celular" style="ellipse;whiteSpace=wrap;html=1;align=center;" parent="1" vertex="1">
          <mxGeometry x="-1104.75" y="30" width="100" height="40" as="geometry" />
        </mxCell>
        <mxCell id="66ud1QGmvq39mYi4TVKc-61" value="dirección" style="ellipse;whiteSpace=wrap;html=1;align=center;" parent="1" vertex="1">
          <mxGeometry x="-994.75" y="31" width="101" height="40" as="geometry" />
        </mxCell>
        <mxCell id="66ud1QGmvq39mYi4TVKc-63" value="email" style="ellipse;whiteSpace=wrap;html=1;align=center;" parent="1" vertex="1">
          <mxGeometry x="-874.75" y="30" width="101" height="40" as="geometry" />
        </mxCell>
        <mxCell id="66ud1QGmvq39mYi4TVKc-65" value="fechaActualización" style="ellipse;whiteSpace=wrap;html=1;align=center;" parent="1" vertex="1">
          <mxGeometry x="-763.75" y="30" width="101" height="40" as="geometry" />
        </mxCell>
        <mxCell id="66ud1QGmvq39mYi4TVKc-67" value="estado" style="ellipse;whiteSpace=wrap;html=1;align=center;" parent="1" vertex="1">
          <mxGeometry x="-653.75" y="30" width="101" height="40" as="geometry" />
        </mxCell>
        <mxCell id="66ud1QGmvq39mYi4TVKc-68" value="tiene" style="shape=rhombus;perimeter=rhombusPerimeter;whiteSpace=wrap;html=1;align=center;" parent="1" vertex="1">
          <mxGeometry x="-332" y="201" width="120" height="60" as="geometry" />
        </mxCell>
        <mxCell id="66ud1QGmvq39mYi4TVKc-73" value="1,N" style="text;html=1;align=center;verticalAlign=middle;resizable=0;points=[];autosize=1;strokeColor=none;fillColor=none;" parent="1" vertex="1">
          <mxGeometry x="-295" y="171" width="40" height="30" as="geometry" />
        </mxCell>
        <mxCell id="66ud1QGmvq39mYi4TVKc-75" value="solicitud" style="whiteSpace=wrap;html=1;align=center;" parent="1" vertex="1">
          <mxGeometry x="-1188" y="710" width="100" height="40" as="geometry" />
        </mxCell>
        <mxCell id="66ud1QGmvq39mYi4TVKc-76" value="resolución" style="whiteSpace=wrap;html=1;align=center;" parent="1" vertex="1">
          <mxGeometry x="-329" y="710" width="100" height="40" as="geometry" />
        </mxCell>
        <mxCell id="66ud1QGmvq39mYi4TVKc-77" value="realiza" style="shape=rhombus;perimeter=rhombusPerimeter;whiteSpace=wrap;html=1;align=center;" parent="1" vertex="1">
          <mxGeometry x="-1198" y="450" width="120" height="60" as="geometry" />
        </mxCell>
        <mxCell id="66ud1QGmvq39mYi4TVKc-78" value="tiene" style="shape=rhombus;perimeter=rhombusPerimeter;whiteSpace=wrap;html=1;align=center;" parent="1" vertex="1">
          <mxGeometry x="-790" y="700" width="120" height="60" as="geometry" />
        </mxCell>
        <mxCell id="66ud1QGmvq39mYi4TVKc-85" value="1,N" style="text;html=1;align=center;verticalAlign=middle;resizable=0;points=[];autosize=1;strokeColor=none;fillColor=none;" parent="1" vertex="1">
          <mxGeometry x="-1078" y="465" width="40" height="30" as="geometry" />
        </mxCell>
        <mxCell id="66ud1QGmvq39mYi4TVKc-88" value="1,1" style="text;html=1;align=center;verticalAlign=middle;resizable=0;points=[];autosize=1;strokeColor=none;fillColor=none;" parent="1" vertex="1">
          <mxGeometry x="-750" y="670" width="40" height="30" as="geometry" />
        </mxCell>
        <mxCell id="7-qyzKeXmiIdSlEH_Hon-1" value="tipoCredito" style="ellipse;whiteSpace=wrap;html=1;align=center;" parent="1" vertex="1">
          <mxGeometry x="-1370" y="485" width="100" height="40" as="geometry" />
        </mxCell>
        <mxCell id="7-qyzKeXmiIdSlEH_Hon-2" value="&lt;u&gt;id&lt;/u&gt;" style="ellipse;whiteSpace=wrap;html=1;align=center;" parent="1" vertex="1">
          <mxGeometry x="-1370" y="420" width="100" height="40" as="geometry" />
        </mxCell>
        <mxCell id="7-qyzKeXmiIdSlEH_Hon-3" value="destino" style="ellipse;whiteSpace=wrap;html=1;align=center;" parent="1" vertex="1">
          <mxGeometry x="-1370" y="545" width="100" height="40" as="geometry" />
        </mxCell>
        <mxCell id="7-qyzKeXmiIdSlEH_Hon-7" value="garantía" style="ellipse;whiteSpace=wrap;html=1;align=center;" parent="1" vertex="1">
          <mxGeometry x="-1370" y="605" width="100" height="40" as="geometry" />
        </mxCell>
        <mxCell id="7-qyzKeXmiIdSlEH_Hon-9" value="fecha" style="ellipse;whiteSpace=wrap;html=1;align=center;" parent="1" vertex="1">
          <mxGeometry x="-1370" y="660" width="100" height="40" as="geometry" />
        </mxCell>
        <mxCell id="7-qyzKeXmiIdSlEH_Hon-11" value="montoSolicitado" style="ellipse;whiteSpace=wrap;html=1;align=center;" parent="1" vertex="1">
          <mxGeometry x="-1370" y="710" width="100" height="40" as="geometry" />
        </mxCell>
        <mxCell id="7-qyzKeXmiIdSlEH_Hon-12" value="saldoAnterior" style="ellipse;whiteSpace=wrap;html=1;align=center;" parent="1" vertex="1">
          <mxGeometry x="-1370" y="760" width="100" height="40" as="geometry" />
        </mxCell>
        <mxCell id="7-qyzKeXmiIdSlEH_Hon-14" value="montoFresco" style="ellipse;whiteSpace=wrap;html=1;align=center;dashed=1;" parent="1" vertex="1">
          <mxGeometry x="-1370" y="810" width="100" height="40" as="geometry" />
        </mxCell>
        <mxCell id="7-qyzKeXmiIdSlEH_Hon-18" value="plazo" style="ellipse;whiteSpace=wrap;html=1;align=center;" parent="1" vertex="1">
          <mxGeometry x="-1370" y="860" width="100" height="40" as="geometry" />
        </mxCell>
        <mxCell id="7-qyzKeXmiIdSlEH_Hon-19" value="diaPago" style="ellipse;whiteSpace=wrap;html=1;align=center;" parent="1" vertex="1">
          <mxGeometry x="-1370" y="910" width="100" height="40" as="geometry" />
        </mxCell>
        <mxCell id="7-qyzKeXmiIdSlEH_Hon-20" value="tasaInteres" style="ellipse;whiteSpace=wrap;html=1;align=center;" parent="1" vertex="1">
          <mxGeometry x="-1370" y="960" width="100" height="40" as="geometry" />
        </mxCell>
        <mxCell id="7-qyzKeXmiIdSlEH_Hon-26" value="tipoVivienda" style="ellipse;whiteSpace=wrap;html=1;align=center;" parent="1" vertex="1">
          <mxGeometry x="-543.75" y="30" width="101" height="40" as="geometry" />
        </mxCell>
        <mxCell id="7-qyzKeXmiIdSlEH_Hon-28" value="estado" style="ellipse;whiteSpace=wrap;html=1;align=center;" parent="1" vertex="1">
          <mxGeometry x="-1370" y="1010" width="100" height="40" as="geometry" />
        </mxCell>
        <mxCell id="7-qyzKeXmiIdSlEH_Hon-30" value="cuotaCapital" style="ellipse;whiteSpace=wrap;html=1;align=center;" parent="1" vertex="1">
          <mxGeometry x="-567.5" y="620" width="100" height="40" as="geometry" />
        </mxCell>
        <mxCell id="7-qyzKeXmiIdSlEH_Hon-31" value="intereses" style="ellipse;whiteSpace=wrap;html=1;align=center;" parent="1" vertex="1">
          <mxGeometry x="-445" y="620" width="100" height="40" as="geometry" />
        </mxCell>
        <mxCell id="7-qyzKeXmiIdSlEH_Hon-32" value="idSolicitud" style="ellipse;whiteSpace=wrap;html=1;align=center;fontStyle=4" parent="1" vertex="1">
          <mxGeometry x="-690" y="620" width="100" height="40" as="geometry" />
        </mxCell>
        <mxCell id="7-qyzKeXmiIdSlEH_Hon-36" value="fechaResolución" style="ellipse;whiteSpace=wrap;html=1;align=center;" parent="1" vertex="1">
          <mxGeometry x="-327.5" y="620" width="100" height="40" as="geometry" />
        </mxCell>
        <mxCell id="7-qyzKeXmiIdSlEH_Hon-38" value="modalidadCuotas" style="ellipse;whiteSpace=wrap;html=1;align=center;" parent="1" vertex="1">
          <mxGeometry x="-218.75" y="620" width="100" height="40" as="geometry" />
        </mxCell>
        <mxCell id="7-qyzKeXmiIdSlEH_Hon-40" value="cantidadDesembolso" style="ellipse;whiteSpace=wrap;html=1;align=center;" parent="1" vertex="1">
          <mxGeometry x="-108.75" y="620" width="100" height="40" as="geometry" />
        </mxCell>
        <mxCell id="7-qyzKeXmiIdSlEH_Hon-42" value="acta" style="ellipse;whiteSpace=wrap;html=1;align=center;" parent="1" vertex="1">
          <mxGeometry x="10.120000000000001" y="620" width="100" height="40" as="geometry" />
        </mxCell>
        <mxCell id="7-qyzKeXmiIdSlEH_Hon-45" value="totalPago" style="ellipse;whiteSpace=wrap;html=1;align=center;dashed=1;" parent="1" vertex="1">
          <mxGeometry x="123.12" y="620" width="100" height="40" as="geometry" />
        </mxCell>
        <mxCell id="djcoDwFRb1nhkoD3oJi8-2" value="montoLetras" style="ellipse;whiteSpace=wrap;html=1;align=center;" parent="1" vertex="1">
          <mxGeometry x="-446" y="800" width="100" height="40" as="geometry" />
        </mxCell>
        <mxCell id="djcoDwFRb1nhkoD3oJi8-5" value="garantias" style="ellipse;whiteSpace=wrap;html=1;align=center;" parent="1" vertex="1">
          <mxGeometry x="-330" y="800" width="100" height="40" as="geometry" />
        </mxCell>
        <mxCell id="djcoDwFRb1nhkoD3oJi8-6" value="comentarios" style="ellipse;whiteSpace=wrap;html=1;align=center;" parent="1" vertex="1">
          <mxGeometry x="-212" y="800" width="100" height="40" as="geometry" />
        </mxCell>
        <mxCell id="sFIiztONORR1nFewB7nD-1" value="ingresos" style="ellipse;whiteSpace=wrap;html=1;align=center;" parent="1" vertex="1">
          <mxGeometry x="-429.75" y="30" width="101" height="40" as="geometry" />
        </mxCell>
        <mxCell id="sFIiztONORR1nFewB7nD-2" value="egresos" style="ellipse;whiteSpace=wrap;html=1;align=center;" parent="1" vertex="1">
          <mxGeometry x="-319.75" y="30" width="101" height="40" as="geometry" />
        </mxCell>
        <mxCell id="sFIiztONORR1nFewB7nD-10" value="saldo" style="ellipse;whiteSpace=wrap;html=1;align=center;dashed=1;" parent="1" vertex="1">
          <mxGeometry x="-212" y="30" width="100" height="40" as="geometry" />
        </mxCell>
      </root>
    </mxGraphModel>
  </diagram>
  <diagram id="zEXXHqCc4k1S-mAHwhzy" name="SECUENCIA-PANTALLS">
    <mxGraphModel dx="1674" dy="842" grid="1" gridSize="10" guides="1" tooltips="1" connect="1" arrows="1" fold="1" page="1" pageScale="1" pageWidth="827" pageHeight="1169" math="0" shadow="0">
      <root>
        <mxCell id="0" />
        <mxCell id="1" parent="0" />
      </root>
    </mxGraphModel>
  </diagram>
</mxfile>
